<mxfile host="app.diagrams.net" modified="2020-11-19T08:22:17.300Z" agent="5.0 (Macintosh)" etag="kQoeUc9TkQwFaVw5nv25" version="13.10.0" type="github">
  <diagram name="Page-1" id="c7558073-3199-34d8-9f00-42111426c3f3">
    <mxGraphModel dx="3566" dy="864" grid="1" gridSize="10" guides="1" tooltips="1" connect="1" arrows="1" fold="1" page="1" pageScale="1" pageWidth="826" pageHeight="1169" background="#ffffff" math="0" shadow="0">
      <root>
        <mxCell id="0" />
        <mxCell id="1" parent="0" />
        <mxCell id="dKGaRJhlv34UxvKMKv84-105" style="edgeStyle=orthogonalEdgeStyle;rounded=0;orthogonalLoop=1;jettySize=auto;html=1;" edge="1" parent="1" source="dKGaRJhlv34UxvKMKv84-98" target="dKGaRJhlv34UxvKMKv84-99">
          <mxGeometry relative="1" as="geometry" />
        </mxCell>
        <mxCell id="dKGaRJhlv34UxvKMKv84-98" value="" style="aspect=fixed;html=1;points=[];align=center;image;fontSize=12;image=img/lib/azure2/general/Files.svg;" vertex="1" parent="1">
          <mxGeometry x="196" y="142" width="64" height="70" as="geometry" />
        </mxCell>
        <mxCell id="dKGaRJhlv34UxvKMKv84-118" style="edgeStyle=orthogonalEdgeStyle;rounded=0;orthogonalLoop=1;jettySize=auto;html=1;" edge="1" parent="1" source="dKGaRJhlv34UxvKMKv84-99" target="dKGaRJhlv34UxvKMKv84-117">
          <mxGeometry relative="1" as="geometry" />
        </mxCell>
        <mxCell id="dKGaRJhlv34UxvKMKv84-99" value="" style="aspect=fixed;html=1;points=[];align=center;image;fontSize=12;image=img/lib/azure2/management_governance/Automation_Accounts.svg;" vertex="1" parent="1">
          <mxGeometry x="343" y="154" width="46" height="46" as="geometry" />
        </mxCell>
        <mxCell id="dKGaRJhlv34UxvKMKv84-102" value="Raw Data" style="text;html=1;align=center;verticalAlign=middle;resizable=0;points=[];autosize=1;" vertex="1" parent="1">
          <mxGeometry x="190" y="230" width="70" height="20" as="geometry" />
        </mxCell>
        <mxCell id="dKGaRJhlv34UxvKMKv84-103" value="&lt;div&gt;Read Raw Data&lt;/div&gt;&lt;div&gt;Add metadata&lt;br&gt;&lt;/div&gt;" style="text;html=1;align=center;verticalAlign=middle;resizable=0;points=[];autosize=1;" vertex="1" parent="1">
          <mxGeometry x="318" y="220" width="100" height="30" as="geometry" />
        </mxCell>
        <mxCell id="dKGaRJhlv34UxvKMKv84-104" value="Bronze Table" style="text;html=1;align=center;verticalAlign=middle;resizable=0;points=[];autosize=1;" vertex="1" parent="1">
          <mxGeometry x="457" y="213" width="90" height="20" as="geometry" />
        </mxCell>
        <mxCell id="dKGaRJhlv34UxvKMKv84-131" style="edgeStyle=orthogonalEdgeStyle;rounded=0;orthogonalLoop=1;jettySize=auto;html=1;" edge="1" parent="1" source="dKGaRJhlv34UxvKMKv84-107" target="dKGaRJhlv34UxvKMKv84-130">
          <mxGeometry relative="1" as="geometry" />
        </mxCell>
        <mxCell id="dKGaRJhlv34UxvKMKv84-107" value="" style="aspect=fixed;html=1;points=[];align=center;image;fontSize=12;image=img/lib/azure2/general/Storage_Queue.svg;" vertex="1" parent="1">
          <mxGeometry x="457" y="320" width="64" height="52" as="geometry" />
        </mxCell>
        <mxCell id="dKGaRJhlv34UxvKMKv84-109" value="Delta Table" style="text;html=1;align=center;verticalAlign=middle;resizable=0;points=[];autosize=1;" vertex="1" parent="1">
          <mxGeometry x="457" y="122" width="80" height="20" as="geometry" />
        </mxCell>
        <mxCell id="dKGaRJhlv34UxvKMKv84-123" style="edgeStyle=orthogonalEdgeStyle;rounded=0;orthogonalLoop=1;jettySize=auto;html=1;entryX=0.016;entryY=0.558;entryDx=0;entryDy=0;entryPerimeter=0;" edge="1" parent="1" source="dKGaRJhlv34UxvKMKv84-111" target="dKGaRJhlv34UxvKMKv84-107">
          <mxGeometry relative="1" as="geometry" />
        </mxCell>
        <mxCell id="dKGaRJhlv34UxvKMKv84-124" style="edgeStyle=orthogonalEdgeStyle;rounded=0;orthogonalLoop=1;jettySize=auto;html=1;entryX=0;entryY=0.49;entryDx=0;entryDy=0;entryPerimeter=0;" edge="1" parent="1" source="dKGaRJhlv34UxvKMKv84-111" target="dKGaRJhlv34UxvKMKv84-122">
          <mxGeometry relative="1" as="geometry" />
        </mxCell>
        <mxCell id="dKGaRJhlv34UxvKMKv84-160" style="edgeStyle=orthogonalEdgeStyle;rounded=0;orthogonalLoop=1;jettySize=auto;html=1;entryX=-0.017;entryY=0.538;entryDx=0;entryDy=0;entryPerimeter=0;" edge="1" parent="1" source="dKGaRJhlv34UxvKMKv84-111" target="dKGaRJhlv34UxvKMKv84-159">
          <mxGeometry relative="1" as="geometry" />
        </mxCell>
        <mxCell id="dKGaRJhlv34UxvKMKv84-111" value="" style="aspect=fixed;html=1;points=[];align=center;image;fontSize=12;image=img/lib/azure2/general/Search_Grid.svg;" vertex="1" parent="1">
          <mxGeometry x="298" y="385" width="47.7" height="47" as="geometry" />
        </mxCell>
        <mxCell id="dKGaRJhlv34UxvKMKv84-115" style="edgeStyle=orthogonalEdgeStyle;rounded=0;orthogonalLoop=1;jettySize=auto;html=1;entryX=-0.021;entryY=0.436;entryDx=0;entryDy=0;entryPerimeter=0;" edge="1" parent="1" source="dKGaRJhlv34UxvKMKv84-112" target="dKGaRJhlv34UxvKMKv84-111">
          <mxGeometry relative="1" as="geometry" />
        </mxCell>
        <mxCell id="dKGaRJhlv34UxvKMKv84-112" value="" style="aspect=fixed;html=1;points=[];align=center;image;fontSize=12;image=img/lib/azure2/management_governance/Automation_Accounts.svg;" vertex="1" parent="1">
          <mxGeometry x="168" y="383" width="46" height="46" as="geometry" />
        </mxCell>
        <mxCell id="dKGaRJhlv34UxvKMKv84-114" value="&lt;div&gt;Read Bronze Table&lt;/div&gt;&lt;div&gt;New batch of data&lt;br&gt;&lt;/div&gt;" style="text;html=1;align=center;verticalAlign=middle;resizable=0;points=[];autosize=1;" vertex="1" parent="1">
          <mxGeometry x="131" y="447.5" width="120" height="30" as="geometry" />
        </mxCell>
        <mxCell id="dKGaRJhlv34UxvKMKv84-116" value="&lt;div&gt;DQ Framework&lt;/div&gt;" style="text;html=1;align=center;verticalAlign=middle;resizable=0;points=[];autosize=1;" vertex="1" parent="1">
          <mxGeometry x="280" y="452.5" width="100" height="20" as="geometry" />
        </mxCell>
        <mxCell id="dKGaRJhlv34UxvKMKv84-117" value="" style="aspect=fixed;html=1;points=[];align=center;image;fontSize=12;image=img/lib/azure2/general/Table.svg;" vertex="1" parent="1">
          <mxGeometry x="473" y="151" width="64" height="52" as="geometry" />
        </mxCell>
        <mxCell id="dKGaRJhlv34UxvKMKv84-120" style="edgeStyle=orthogonalEdgeStyle;rounded=0;orthogonalLoop=1;jettySize=auto;html=1;entryX=0.022;entryY=0.5;entryDx=0;entryDy=0;entryPerimeter=0;" edge="1" parent="1" source="dKGaRJhlv34UxvKMKv84-119" target="dKGaRJhlv34UxvKMKv84-112">
          <mxGeometry relative="1" as="geometry" />
        </mxCell>
        <mxCell id="dKGaRJhlv34UxvKMKv84-119" value="" style="aspect=fixed;html=1;points=[];align=center;image;fontSize=12;image=img/lib/azure2/general/Table.svg;" vertex="1" parent="1">
          <mxGeometry x="41" y="380" width="64" height="52" as="geometry" />
        </mxCell>
        <mxCell id="dKGaRJhlv34UxvKMKv84-121" value="Bronze Table" style="text;html=1;align=center;verticalAlign=middle;resizable=0;points=[];autosize=1;" vertex="1" parent="1">
          <mxGeometry x="28" y="441.5" width="90" height="20" as="geometry" />
        </mxCell>
        <mxCell id="dKGaRJhlv34UxvKMKv84-122" value="" style="aspect=fixed;html=1;points=[];align=center;image;fontSize=12;image=img/lib/azure2/general/Storage_Queue.svg;" vertex="1" parent="1">
          <mxGeometry x="457" y="425.5" width="64" height="52" as="geometry" />
        </mxCell>
        <mxCell id="dKGaRJhlv34UxvKMKv84-125" value="" style="aspect=fixed;html=1;points=[];align=center;image;fontSize=12;image=img/lib/azure2/networking/Azure_Firewall_Manager.svg;" vertex="1" parent="1">
          <mxGeometry x="493.25" y="452.5" width="43.75" height="37.5" as="geometry" />
        </mxCell>
        <mxCell id="dKGaRJhlv34UxvKMKv84-126" value="" style="aspect=fixed;html=1;points=[];align=center;image;fontSize=12;image=img/lib/azure2/intune/Device_Security_Google.svg;" vertex="1" parent="1">
          <mxGeometry x="498.57" y="344" width="38.43" height="39" as="geometry" />
        </mxCell>
        <mxCell id="dKGaRJhlv34UxvKMKv84-127" value="Valid records" style="text;html=1;align=center;verticalAlign=middle;resizable=0;points=[];autosize=1;" vertex="1" parent="1">
          <mxGeometry x="449" y="385" width="80" height="20" as="geometry" />
        </mxCell>
        <mxCell id="dKGaRJhlv34UxvKMKv84-128" value="Silver Quarantined DF" style="text;html=1;align=center;verticalAlign=middle;resizable=0;points=[];autosize=1;" vertex="1" parent="1">
          <mxGeometry x="432" y="500" width="130" height="20" as="geometry" />
        </mxCell>
        <mxCell id="dKGaRJhlv34UxvKMKv84-129" value="Silver Clean DF" style="text;html=1;align=center;verticalAlign=middle;resizable=0;points=[];autosize=1;" vertex="1" parent="1">
          <mxGeometry x="439" y="290" width="100" height="20" as="geometry" />
        </mxCell>
        <mxCell id="dKGaRJhlv34UxvKMKv84-130" value="" style="aspect=fixed;html=1;points=[];align=center;image;fontSize=12;image=img/lib/azure2/general/Table.svg;" vertex="1" parent="1">
          <mxGeometry x="650" y="320" width="64" height="52" as="geometry" />
        </mxCell>
        <mxCell id="dKGaRJhlv34UxvKMKv84-132" value="Write " style="text;html=1;align=center;verticalAlign=middle;resizable=0;points=[];autosize=1;" vertex="1" parent="1">
          <mxGeometry x="560" y="320" width="40" height="20" as="geometry" />
        </mxCell>
        <mxCell id="dKGaRJhlv34UxvKMKv84-133" value="Silver Table" style="text;html=1;align=center;verticalAlign=middle;resizable=0;points=[];autosize=1;" vertex="1" parent="1">
          <mxGeometry x="642" y="380" width="80" height="20" as="geometry" />
        </mxCell>
        <mxCell id="dKGaRJhlv34UxvKMKv84-134" value="Delta Table" style="text;html=1;align=center;verticalAlign=middle;resizable=0;points=[];autosize=1;" vertex="1" parent="1">
          <mxGeometry x="642" y="290" width="80" height="20" as="geometry" />
        </mxCell>
        <mxCell id="dKGaRJhlv34UxvKMKv84-135" value="Rejected records" style="text;html=1;align=center;verticalAlign=middle;resizable=0;points=[];autosize=1;" vertex="1" parent="1">
          <mxGeometry x="435" y="520" width="110" height="20" as="geometry" />
        </mxCell>
        <mxCell id="dKGaRJhlv34UxvKMKv84-140" style="edgeStyle=orthogonalEdgeStyle;rounded=0;orthogonalLoop=1;jettySize=auto;html=1;" edge="1" parent="1" source="dKGaRJhlv34UxvKMKv84-136" target="dKGaRJhlv34UxvKMKv84-138">
          <mxGeometry relative="1" as="geometry" />
        </mxCell>
        <mxCell id="dKGaRJhlv34UxvKMKv84-136" value="" style="aspect=fixed;html=1;points=[];align=center;image;fontSize=12;image=img/lib/azure2/general/Storage_Queue.svg;" vertex="1" parent="1">
          <mxGeometry x="248" y="740" width="64" height="52" as="geometry" />
        </mxCell>
        <mxCell id="dKGaRJhlv34UxvKMKv84-137" value="Silver Clean DF" style="text;html=1;align=center;verticalAlign=middle;resizable=0;points=[];autosize=1;" vertex="1" parent="1">
          <mxGeometry x="229" y="715" width="100" height="20" as="geometry" />
        </mxCell>
        <mxCell id="dKGaRJhlv34UxvKMKv84-141" style="edgeStyle=orthogonalEdgeStyle;rounded=0;orthogonalLoop=1;jettySize=auto;html=1;" edge="1" parent="1" source="dKGaRJhlv34UxvKMKv84-138" target="dKGaRJhlv34UxvKMKv84-139">
          <mxGeometry relative="1" as="geometry" />
        </mxCell>
        <mxCell id="dKGaRJhlv34UxvKMKv84-138" value="" style="aspect=fixed;html=1;points=[];align=center;image;fontSize=12;image=img/lib/azure2/management_governance/Automation_Accounts.svg;" vertex="1" parent="1">
          <mxGeometry x="378" y="750" width="32" height="32" as="geometry" />
        </mxCell>
        <mxCell id="dKGaRJhlv34UxvKMKv84-139" value="" style="aspect=fixed;html=1;points=[];align=center;image;fontSize=12;image=img/lib/azure2/general/Table.svg;" vertex="1" parent="1">
          <mxGeometry x="467" y="737.5" width="70.15" height="57" as="geometry" />
        </mxCell>
        <mxCell id="dKGaRJhlv34UxvKMKv84-142" value="Bronze Table" style="text;html=1;align=center;verticalAlign=middle;resizable=0;points=[];autosize=1;" vertex="1" parent="1">
          <mxGeometry x="457.07" y="805" width="90" height="20" as="geometry" />
        </mxCell>
        <mxCell id="dKGaRJhlv34UxvKMKv84-144" value="Delta Table" style="text;html=1;align=center;verticalAlign=middle;resizable=0;points=[];autosize=1;" vertex="1" parent="1">
          <mxGeometry x="462.07" y="710" width="80" height="20" as="geometry" />
        </mxCell>
        <mxCell id="dKGaRJhlv34UxvKMKv84-145" value="Delta Table" style="text;html=1;align=center;verticalAlign=middle;resizable=0;points=[];autosize=1;" vertex="1" parent="1">
          <mxGeometry x="33" y="353.5" width="80" height="20" as="geometry" />
        </mxCell>
        <mxCell id="dKGaRJhlv34UxvKMKv84-146" value="&lt;div&gt;Update &lt;br&gt;&lt;/div&gt;&lt;div&gt;Bronze Table&lt;br&gt;&lt;/div&gt;" style="text;html=1;align=center;verticalAlign=middle;resizable=0;points=[];autosize=1;" vertex="1" parent="1">
          <mxGeometry x="345" y="807" width="90" height="30" as="geometry" />
        </mxCell>
        <mxCell id="dKGaRJhlv34UxvKMKv84-147" value="" style="aspect=fixed;html=1;points=[];align=center;image;fontSize=12;image=img/lib/azure2/intune/Device_Security_Google.svg;" vertex="1" parent="1">
          <mxGeometry x="289" y="775" width="38.43" height="39" as="geometry" />
        </mxCell>
        <mxCell id="dKGaRJhlv34UxvKMKv84-148" style="edgeStyle=orthogonalEdgeStyle;rounded=0;orthogonalLoop=1;jettySize=auto;html=1;" edge="1" source="dKGaRJhlv34UxvKMKv84-149" target="dKGaRJhlv34UxvKMKv84-152" parent="1">
          <mxGeometry relative="1" as="geometry" />
        </mxCell>
        <mxCell id="dKGaRJhlv34UxvKMKv84-149" value="" style="aspect=fixed;html=1;points=[];align=center;image;fontSize=12;image=img/lib/azure2/general/Storage_Queue.svg;" vertex="1" parent="1">
          <mxGeometry x="248" y="905" width="64" height="52" as="geometry" />
        </mxCell>
        <mxCell id="dKGaRJhlv34UxvKMKv84-150" value="Silver Quarantined DF" style="text;html=1;align=center;verticalAlign=middle;resizable=0;points=[];autosize=1;" vertex="1" parent="1">
          <mxGeometry x="214" y="880" width="130" height="20" as="geometry" />
        </mxCell>
        <mxCell id="dKGaRJhlv34UxvKMKv84-151" style="edgeStyle=orthogonalEdgeStyle;rounded=0;orthogonalLoop=1;jettySize=auto;html=1;" edge="1" source="dKGaRJhlv34UxvKMKv84-152" target="dKGaRJhlv34UxvKMKv84-153" parent="1">
          <mxGeometry relative="1" as="geometry" />
        </mxCell>
        <mxCell id="dKGaRJhlv34UxvKMKv84-152" value="" style="aspect=fixed;html=1;points=[];align=center;image;fontSize=12;image=img/lib/azure2/management_governance/Automation_Accounts.svg;" vertex="1" parent="1">
          <mxGeometry x="378" y="915" width="32" height="32" as="geometry" />
        </mxCell>
        <mxCell id="dKGaRJhlv34UxvKMKv84-153" value="" style="aspect=fixed;html=1;points=[];align=center;image;fontSize=12;image=img/lib/azure2/general/Table.svg;" vertex="1" parent="1">
          <mxGeometry x="467" y="902.5" width="70.15" height="57" as="geometry" />
        </mxCell>
        <mxCell id="dKGaRJhlv34UxvKMKv84-154" value="Bronze Table" style="text;html=1;align=center;verticalAlign=middle;resizable=0;points=[];autosize=1;" vertex="1" parent="1">
          <mxGeometry x="457.07" y="970" width="90" height="20" as="geometry" />
        </mxCell>
        <mxCell id="dKGaRJhlv34UxvKMKv84-155" value="Delta Table" style="text;html=1;align=center;verticalAlign=middle;resizable=0;points=[];autosize=1;" vertex="1" parent="1">
          <mxGeometry x="462.06999999999994" y="875" width="80" height="20" as="geometry" />
        </mxCell>
        <mxCell id="dKGaRJhlv34UxvKMKv84-156" value="&lt;div&gt;Update &lt;br&gt;&lt;/div&gt;&lt;div&gt;Bronze Table&lt;br&gt;&lt;/div&gt;" style="text;html=1;align=center;verticalAlign=middle;resizable=0;points=[];autosize=1;" vertex="1" parent="1">
          <mxGeometry x="345" y="972" width="90" height="30" as="geometry" />
        </mxCell>
        <mxCell id="dKGaRJhlv34UxvKMKv84-158" value="" style="aspect=fixed;html=1;points=[];align=center;image;fontSize=12;image=img/lib/azure2/networking/Azure_Firewall_Manager.svg;" vertex="1" parent="1">
          <mxGeometry x="283.68" y="947" width="43.75" height="37.5" as="geometry" />
        </mxCell>
        <mxCell id="dKGaRJhlv34UxvKMKv84-159" value="" style="aspect=fixed;html=1;points=[];align=center;image;fontSize=12;image=img/lib/azure2/management_governance/Metrics.svg;" vertex="1" parent="1">
          <mxGeometry x="457" y="552" width="60" height="65" as="geometry" />
        </mxCell>
        <mxCell id="dKGaRJhlv34UxvKMKv84-161" value="Metrics" style="text;html=1;align=center;verticalAlign=middle;resizable=0;points=[];autosize=1;" vertex="1" parent="1">
          <mxGeometry x="462" y="630" width="50" height="20" as="geometry" />
        </mxCell>
        <mxCell id="dKGaRJhlv34UxvKMKv84-162" value="write" style="text;html=1;align=center;verticalAlign=middle;resizable=0;points=[];autosize=1;" vertex="1" parent="1">
          <mxGeometry x="413" y="740" width="40" height="20" as="geometry" />
        </mxCell>
        <mxCell id="dKGaRJhlv34UxvKMKv84-163" value="write" style="text;html=1;align=center;verticalAlign=middle;resizable=0;points=[];autosize=1;" vertex="1" parent="1">
          <mxGeometry x="409" y="905" width="40" height="20" as="geometry" />
        </mxCell>
      </root>
    </mxGraphModel>
  </diagram>
</mxfile>
